<?xml version="1.0" encoding="UTF-8"?>
<svg xmlns="http://www.w3.org/2000/svg" viewBox="0 0 301.31 65.63">
  <defs>
    <style>
      .cls-1 {
        letter-spacing: .02em;
      }

      .cls-2 {
        letter-spacing: .02em;
      }

      .cls-3 {
        fill: #4dac4a;
      }

      .cls-3, .cls-4, .cls-5, .cls-6, .cls-7, .cls-8, .cls-9, .cls-10, .cls-11, .cls-12, .cls-13, .cls-14 {
        stroke-width: 0px;
      }

      .cls-4 {
        fill: #3d8f3c;
      }

      .cls-5 {
        fill: #787a17;
      }

      .cls-6 {
        fill: #0081b2;
      }

      .cls-7 {
        fill: #005476;
      }

      .cls-8 {
        fill: #86a9a7;
      }

      .cls-15 {
        font-family: Quicksand-Medium, Quicksand;
        font-size: 16.07px;
        font-variation-settings: 'wght' 500;
        font-weight: 500;
        letter-spacing: .03em;
      }

      .cls-15, .cls-16 {
        fill: #414042;
      }

      .cls-9 {
        fill: #536c6c;
      }

      .cls-10 {
        fill: #d9d633;
      }

      .cls-11 {
        fill: #aad4d1;
      }

      .cls-12 {
        fill: #0bb5df;
      }

      .cls-13 {
        fill: #11541c;
      }

      .cls-17 {
        letter-spacing: .03em;
      }

      .cls-14 {
        fill: #aeae29;
      }

      .cls-16 {
        font-family: Quicksand-Bold, Quicksand;
        font-size: 43.14px;
        font-variation-settings: 'wght' 700;
        font-weight: 700;
      }
    </style>
  </defs>
  <g id="data_cubes" data-name="data cubes">
    <g>
      <polygon class="cls-9" points="47.84 13.87 47.84 26.77 36.67 20.32 36.67 7.42 47.84 13.87"/>
      <polygon class="cls-8" points="59.01 7.42 59.01 20.32 47.84 26.77 47.84 13.87 59.01 7.42"/>
      <polygon class="cls-11" points="59.01 7.42 47.84 13.87 36.67 7.42 47.84 .97 59.01 7.42"/>
    </g>
    <g>
      <polygon class="cls-5" points="63.82 48.93 63.82 61.83 52.65 55.38 52.65 42.48 63.82 48.93"/>
      <polygon class="cls-14" points="74.99 42.48 74.99 55.38 63.82 61.83 63.82 48.93 74.99 42.48"/>
      <polygon class="cls-10" points="74.99 42.48 63.82 48.93 52.65 42.48 63.82 36.03 74.99 42.48"/>
    </g>
    <g>
      <polygon class="cls-9" points="47.84 52.61 47.84 65.51 36.67 59.06 36.67 46.16 47.84 52.61"/>
      <polygon class="cls-8" points="59.01 46.16 59.01 59.06 47.84 65.51 47.84 52.61 59.01 46.16"/>
      <polygon class="cls-11" points="59.01 46.16 47.84 52.61 36.67 46.16 47.84 39.71 59.01 46.16"/>
    </g>
    <g>
      <polygon class="cls-7" points="59.01 33.26 59.01 46.16 47.84 39.71 47.84 26.81 59.01 33.26"/>
      <polygon class="cls-6" points="70.18 26.81 70.18 39.71 59.01 46.16 59.01 33.26 70.18 26.81"/>
      <polygon class="cls-12" points="70.18 26.81 59.01 33.26 47.84 26.81 59.01 20.36 70.18 26.81"/>
    </g>
    <g>
      <polygon class="cls-13" points="47.84 39.71 47.84 52.61 36.67 46.16 36.67 33.26 47.84 39.71"/>
      <polygon class="cls-4" points="59.01 33.26 59.01 46.16 47.84 52.61 47.84 39.71 59.01 33.26"/>
      <polygon class="cls-3" points="59.01 33.26 47.84 39.71 36.67 33.26 47.84 26.81 59.01 33.26"/>
    </g>
    <g>
      <polygon class="cls-13" points="63.82 17.58 63.82 30.47 52.65 24.02 52.65 11.13 63.82 17.58"/>
      <polygon class="cls-4" points="74.99 11.13 74.99 24.02 63.82 30.47 63.82 17.58 74.99 11.13"/>
      <polygon class="cls-3" points="74.99 11.13 63.82 17.58 52.65 11.13 63.82 4.68 74.99 11.13"/>
    </g>
    <g>
      <polygon class="cls-5" points="47.84 26.81 47.84 39.71 36.67 33.26 36.67 20.36 47.84 26.81"/>
      <polygon class="cls-14" points="59.01 20.36 59.01 33.26 47.84 39.71 47.84 26.81 59.01 20.36"/>
      <polygon class="cls-10" points="59.01 20.36 47.84 26.81 36.67 20.36 47.84 13.91 59.01 20.36"/>
    </g>
    <g>
      <polygon class="cls-13" points="78.04 56.69 78.04 63.86 71.82 60.28 71.82 53.1 78.04 56.69"/>
      <polygon class="cls-4" points="84.25 53.1 84.25 60.28 78.04 63.86 78.04 56.69 84.25 53.1"/>
      <polygon class="cls-3" points="84.25 53.1 78.04 56.69 71.82 53.1 78.04 49.52 84.25 53.1"/>
    </g>
  </g>
  <g id="beta_cell" data-name="beta cell">
    <circle class="cls-12" cx="7.81" cy="15.45" r="3.3"/>
    <circle class="cls-12" cx="7.81" cy="52.29" r="3.3"/>
    <circle class="cls-12" cx="2.03" cy="33.24" r="2.03"/>
    <circle class="cls-12" cx="21.23" cy="3.89" r="2.03"/>
    <circle class="cls-12" cx="22.23" cy="59.89" r="2.03"/>
    <path class="cls-12" d="M31.96,3.01c-2.03.79-1.44,1.03-4.57,3.23-.62.44-1.14.74-1.58.97,0,.06.02.12.02.18,0,1.56-1.26,2.82-2.82,2.82-.6,0-1.15-.19-1.61-.51-1.41,1.59-1.6,3.22-3.54,6.06-2.17,3.17-3.9,3.72-4.98,6.77-1.2,3.36-.73,4.38-.73,6.27s-1.09,6.05-1.03,6.85c.19,2.49,1.43,3.55,2.49,6.12,1.07,2.57.22,4.64,1.09,6.31.94,1.78,2.32,2.2,4.2,4.12.83.84,1.29,1.75,1.7,2.62.6-.26,1.26-.41,1.97-.41,2.67,0,4.84,2.07,4.84,4.63,0,.23-.04.46-.07.69.38.14.75.29,1.08.48,2.18,1.26,3.47,3.32,5.93,4.05,2.97.89,6.12,1.37,9.36,1.37V.82c-4.13,0-8.09.78-11.74,2.19ZM23.01,41.97c-2.7,0-4.88-2.19-4.88-4.88s2.19-4.88,4.88-4.88,4.88,2.19,4.88,4.88-2.19,4.88-4.88,4.88ZM27.32,14.3c0-1.82,1.48-3.3,3.3-3.3s3.3,1.48,3.3,3.3-1.48,3.3-3.3,3.3-3.3-1.48-3.3-3.3ZM32.98,53.68c-1.82,0-3.3-1.48-3.3-3.3s1.48-3.3,3.3-3.3,3.3,1.48,3.3,3.3-1.48,3.3-3.3,3.3Z"/>
  </g>
  <g id="dark_text" data-name="dark text">
    <g id="PanKbase">
      <text class="cls-16" transform="translate(86.25 42.64)"><tspan class="cls-17" x="0" y="0">Pan</tspan><tspan class="cls-1" x="82.06" y="0">Kb</tspan><tspan class="cls-2" x="139.56" y="0">ase</tspan></text>
    </g>
    <g id="tagline">
      <text class="cls-15" transform="translate(88.8 59.89) scale(.95 1)"><tspan x="0" y="0">a pancreas knowledge base</tspan></text>
    </g>
  </g>
</svg>