<?xml version="1.0" encoding="UTF-8" standalone="no"?>
<svg
   version="1.1"
   viewBox="0 0 59.520004 55.456086"
   id="svg41"
   sodipodi:docname="PanKbase-logos.svg"
   xml:space="preserve"
   width="59.520004"
   height="55.456085"
   inkscape:version="1.3 (0e150ed, 2023-07-21)"
   xmlns:inkscape="http://www.inkscape.org/namespaces/inkscape"
   xmlns:sodipodi="http://sodipodi.sourceforge.net/DTD/sodipodi-0.dtd"
   xmlns="http://www.w3.org/2000/svg"
   xmlns:svg="http://www.w3.org/2000/svg"><sodipodi:namedview
     id="namedview41"
     pagecolor="#ffffff"
     bordercolor="#000000"
     borderopacity="0.25"
     inkscape:showpageshadow="2"
     inkscape:pageopacity="0.0"
     inkscape:pagecheckerboard="0"
     inkscape:deskcolor="#d1d1d1"
     showguides="false"
     inkscape:zoom="1.2406342"
     inkscape:cx="208.36118"
     inkscape:cy="283.32284"
     inkscape:window-width="1384"
     inkscape:window-height="902"
     inkscape:window-x="0"
     inkscape:window-y="38"
     inkscape:window-maximized="0"
     inkscape:current-layer="g278"
     guidecolor="#e100ff"
     guideopacity="0.27058824"><sodipodi:guide
       position="75.705049,373.83608"
       orientation="1,0"
       id="guide106"
       inkscape:locked="false" /><sodipodi:guide
       position="39.876086,344.61975"
       orientation="0,-1"
       id="guide278"
       inkscape:locked="false" /><sodipodi:guide
       position="93.685179,200.64425"
       orientation="0,-1"
       id="guide334"
       inkscape:locked="false" /><sodipodi:guide
       position="281.73719,476.13299"
       orientation="1,0"
       id="guide335"
       inkscape:locked="false" /><sodipodi:guide
       position="529.47643,470.4506"
       orientation="1,0"
       id="guide670"
       inkscape:locked="false" /><sodipodi:guide
       position="720.3853,189.1858"
       orientation="0,-1"
       id="guide838"
       inkscape:locked="false" /><sodipodi:guide
       position="703.66204,329.16"
       orientation="0,-1"
       id="guide839"
       inkscape:locked="false" /><sodipodi:guide
       position="700.55619,471.85225"
       orientation="0,-1"
       id="guide840"
       inkscape:locked="false" /><sodipodi:guide
       position="742.40155,512.58272"
       orientation="1,0"
       id="guide841"
       inkscape:locked="false" /><sodipodi:guide
       position="517.12997,305.64725"
       orientation="0,-1"
       id="guide849"
       inkscape:locked="false" /><sodipodi:guide
       position="528.23323,378.76892"
       orientation="0,-1"
       id="guide850"
       inkscape:locked="false" /><sodipodi:guide
       position="128.65452,360.24478"
       orientation="1,0"
       id="guide2"
       inkscape:locked="false" /><sodipodi:guide
       position="115.65658,253.97774"
       orientation="0,-1"
       id="guide3"
       inkscape:locked="false" /></sodipodi:namedview><defs
     id="defs1"><style
       id="style1">&#10;      .cls-1 {&#10;        fill: #209196;&#10;      }&#10;&#10;      .cls-2 {&#10;        fill: #231f20;&#10;      }&#10;&#10;      .cls-3 {&#10;        fill: #fff;&#10;      }&#10;&#10;      .cls-4 {&#10;        fill: #007f83;&#10;      }&#10;&#10;      .cls-5 {&#10;        fill: #94ca5e;&#10;      }&#10;    </style><clipPath
       id="clippath"><path
         class="cls-3"
         d="m 240.5,352.6 c 37.2,0 67.4,-30.2 67.4,-67.4 v 0 c 0,-37.2 -30.2,-67.4 -67.4,-67.4 h -93.2 c -2.6,0 -4.6,2.1 -4.6,4.6 v 3.3 0 2.6 c 0,2.6 -2.1,4.6 -4.6,4.6 h -2.6 c 0,0 -3.3,0 -3.3,0 0,0 -0.2,0 -0.3,0 v 0 c -2.6,0 -4.6,-2.2 -4.6,-4.7 v 0 c 0,0 0,0 0,0 v -5.9 c 0,-2.6 -2.1,-4.6 -4.6,-4.6 h -5.3 v 0 c -2.6,0 -4.6,-2 -4.6,-4.7 v -5.7 c 0,-2.6 -2.1,-4.6 -4.6,-4.6 h -5.9 c -2.6,0 -4.6,2.1 -4.6,4.6 v 5.9 c 0,2.6 2.1,4.6 4.6,4.6 h 5.7 c 2.7,0 4.1,2.2 4.1,4.9 v 0 c 0,0 0,5.5 0,5.5 0,0 0,0.2 0,0.3 v 0 c 0,2.5 -2.1,4.4 -4.6,4.4 v 0 c 0,0 -5.2,0 -5.2,0 -2.6,0 -4.6,2.1 -4.6,4.6 v 5.9 c 0,2.6 2.1,4.6 4.6,4.6 h 5.9 c 2.6,0 4.6,-2.1 4.6,-4.6 v -5.6 c 0,-2.5 1.4,-5 3.9,-5 v 0 c 0,0 0,0 0,0 h 5.9 c 0,0 0.2,0 0.3,0 v 0 c 2.6,0 4.6,2.1 4.6,4.7 v 0 c 0,0 0,0 0,0 v 3.4 0 2.5 c 0,2.6 -2.1,4.6 -4.6,4.6 h -2.4 c 0,0 -3.2,0 -3.2,0 -2.6,0 -4.6,2.1 -4.6,4.6 v 3.3 0 2.6 c 0,2.6 -2.1,4.6 -4.6,4.6 h -2.6 c 0,0 -3,0 -3,0 -2.6,0 -4.6,2.1 -4.6,4.6 v 5.9 c 0,0 0,0 0,0 v 49 c 0,0 0,69.7 0,69.7 0,11.7 11.1,21.2 24.8,21.2 h 53.2 c 13.7,0 24.8,-9.5 24.8,-21.2 v -40.1 h 40.1 z"
         id="path1" /></clipPath></defs><!-- Generator: Adobe Illustrator 28.7.1, SVG Export Plug-In . SVG Version: 1.2.0 Build 142)  --><g
     id="g278"
     inkscape:label="2b"
     transform="translate(-150.73334,-192.70396)"
     inkscape:export-filename="pkb-1.svg"
     inkscape:export-xdpi="278.54517"
     inkscape:export-ydpi="278.54517"><text
       xml:space="preserve"
       style="font-style:normal;font-variant:normal;font-weight:bold;font-stretch:normal;font-size:23.7483px;line-height:1;font-family:Quicksand;-inkscape-font-specification:'Quicksand Bold';text-align:center;letter-spacing:-0.986293px;text-anchor:middle;display:none;fill:#212121;stroke-width:0.0445278;stroke-linecap:round;stroke-linejoin:round;paint-order:stroke fill markers"
       x="269.77432"
       y="232.6087"
       id="text224"
       inkscape:label="PanKbase font Quicksand Bold"
       inkscape:export-filename="pkb-1.svg"
       inkscape:export-xdpi="96"
       inkscape:export-ydpi="96"><tspan
         sodipodi:role="line"
         id="tspan224"
         x="0"
         y="0"
         style="letter-spacing:-0.986293px;stroke-width:0.0445278"
         dx="0"><tspan
   style="letter-spacing:-1.12975px;stroke-width:0.0445278"
   id="tspan222">Pa</tspan><tspan
   id="tspan223"
   style="letter-spacing:-1.25528px;stroke-width:0.0445278">nK</tspan>base</tspan></text><g
       id="g233"
       style="font-weight:bold;font-size:23.7483px;line-height:1;font-family:Quicksand;-inkscape-font-specification:'Quicksand Bold';text-align:center;letter-spacing:-0.986293px;text-anchor:middle;fill:#212121;stroke-width:0.0445278;stroke-linecap:round;stroke-linejoin:round;paint-order:stroke fill markers"
       aria-label="PanKbase"
       inkscape:label="PanKbase paths"
       transform="translate(-1.0787829,-3.3063626)"
       inkscape:export-filename="pkb-text.svg"
       inkscape:export-xdpi="96"
       inkscape:export-ydpi="96"><path
         d="m 318.57628,236.15254 q -2.0186,0 -3.51475,-0.83119 -1.47239,-0.85494 -2.27983,-2.30359 -0.7837,-1.44864 -0.7837,-3.27726 0,-2.13735 0.85494,-3.63349 0.87869,-1.5199 2.27984,-2.32734 1.40115,-0.80744 2.96854,-0.80744 1.21116,0 2.27983,0.49871 1.09242,0.49872 1.92362,1.37741 0.83119,0.85494 1.30615,1.99485 0.49872,1.13992 0.49872,2.42233 -0.0238,0.56996 -0.45122,0.92618 -0.42747,0.35623 -0.99743,0.35623 h -9.07185 l -0.71245,-2.37483 h 8.71563 l -0.52247,0.47496 v -0.6412 q -0.0475,-0.6887 -0.49871,-1.23491 -0.42747,-0.54621 -1.09242,-0.85494 -0.64121,-0.33248 -1.3774,-0.33248 -0.71245,0 -1.32991,0.18999 -0.61745,0.18999 -1.06867,0.6412 -0.45122,0.45122 -0.71245,1.21117 -0.26123,0.75994 -0.26123,1.92361 0,1.28241 0.52246,2.18484 0.54621,0.87869 1.3774,1.35366 0.85494,0.45121 1.80487,0.45121 0.87869,0 1.40115,-0.14249 0.52246,-0.14249 0.83119,-0.33247 0.33248,-0.21374 0.59371,-0.35623 0.42747,-0.21373 0.80744,-0.21373 0.52247,0 0.85494,0.35622 0.35623,0.35623 0.35623,0.83119 0,0.64121 -0.66496,1.16367 -0.61745,0.52246 -1.73362,0.92618 -1.11617,0.37998 -2.30359,0.37998 z"
         id="path224"
         inkscape:label="e"
         style="fill:#2d2e2f;fill-opacity:1" /><path
         d="m 301.39516,233.94395 q -0.23748,-0.33248 -0.21373,-0.85494 0.0238,-0.52247 0.61745,-0.90244 0.37998,-0.23748 0.80745,-0.18999 0.42747,0.0238 0.83119,0.42747 0.6887,0.6887 1.44864,1.06868 0.75995,0.37997 1.89987,0.37997 0.35622,-0.0238 0.78369,-0.095 0.42747,-0.095 0.7362,-0.37998 0.33247,-0.30872 0.33247,-0.92618 0,-0.52246 -0.35622,-0.83119 -0.35622,-0.30873 -0.94993,-0.52246 -0.56996,-0.21374 -1.28241,-0.40372 -0.7362,-0.21374 -1.51989,-0.47497 -0.75995,-0.26123 -1.40115,-0.66495 -0.64121,-0.42747 -1.04493,-1.11617 -0.40372,-0.6887 -0.40372,-1.73363 0,-1.18741 0.66496,-2.0186 0.66495,-0.83119 1.70987,-1.28241 1.06868,-0.45122 2.23234,-0.45122 0.7362,0 1.54364,0.18999 0.80744,0.16624 1.54364,0.56996 0.7362,0.37997 1.23491,1.02117 0.26124,0.35623 0.30873,0.85494 0.0475,0.49872 -0.45122,0.90244 -0.35622,0.28498 -0.83119,0.26123 -0.47496,-0.0475 -0.78369,-0.33248 -0.40372,-0.52246 -1.09242,-0.83119 -0.66495,-0.30873 -1.54364,-0.30873 -0.35623,0 -0.7837,0.095 -0.40372,0.0712 -0.71244,0.35622 -0.30873,0.26123 -0.30873,0.85494 0,0.54621 0.35622,0.87869 0.35623,0.30873 0.94993,0.52246 0.61746,0.18999 1.30616,0.37997 0.71245,0.18999 1.44865,0.45122 0.73619,0.26123 1.35365,0.6887 0.61746,0.42747 0.99743,1.11617 0.37997,0.66495 0.37997,1.70988 0,1.21116 -0.71245,2.0661 -0.71245,0.85494 -1.78112,1.30616 -1.06867,0.42747 -2.18484,0.42747 -1.40115,0 -2.8023,-0.47497 -1.40115,-0.49871 -2.32734,-1.73362 z"
         id="path225"
         inkscape:label="s"
         style="fill:#2d2e2f;fill-opacity:1" /><path
         d="m 298.60551,222.97223 q 0.61746,0 1.02118,0.40372 0.40372,0.40372 0.40372,1.04493 v 10.04553 q 0,0.61745 -0.40372,1.04492 -0.40372,0.40372 -1.02118,0.40372 -0.61745,0 -1.02118,-0.40372 -0.40372,-0.42747 -0.40372,-1.04492 v -1.16367 l 0.52247,0.21374 q 0,0.30872 -0.33248,0.75994 -0.33248,0.42747 -0.90244,0.85494 -0.56995,0.42747 -1.35365,0.7362 -0.75994,0.28498 -1.66238,0.28498 -1.63863,0 -2.96854,-0.83119 -1.3299,-0.85494 -2.1136,-2.32734 -0.75994,-1.49614 -0.75994,-3.41975 0,-1.94736 0.75994,-3.41976 0.7837,-1.49614 2.08985,-2.32733 1.30616,-0.85494 2.8973,-0.85494 1.02117,0 1.87611,0.30873 0.85494,0.30873 1.4724,0.78369 0.6412,0.47497 0.97368,0.97368 0.35622,0.47497 0.35622,0.80744 l -0.85494,0.30873 v -1.73362 q 0,-0.61746 0.40372,-1.02118 0.40373,-0.42747 1.02118,-0.42747 z m -4.79716,10.56799 q 1.04493,0 1.82862,-0.52246 0.7837,-0.52246 1.21117,-1.4249 0.45121,-0.90243 0.45121,-2.0186 0,-1.13992 -0.45121,-2.04236 -0.42747,-0.90243 -1.21117,-1.42489 -0.78369,-0.52247 -1.82862,-0.52247 -1.02117,0 -1.80487,0.52247 -0.78369,0.52246 -1.23491,1.42489 -0.42747,0.90244 -0.42747,2.04236 0,1.11617 0.42747,2.0186 0.45122,0.90244 1.23491,1.4249 0.7837,0.52246 1.80487,0.52246 z"
         id="path226"
         inkscape:label="a"
         style="fill:#2d2e2f;fill-opacity:1" /><path
         d="m 280.85444,222.97223 q 1.66238,0 2.96854,0.85494 1.3299,0.83119 2.08985,2.30358 0.78369,1.4724 0.78369,3.41976 0,1.94736 -0.78369,3.4435 -0.75995,1.4724 -2.06611,2.32734 -1.2824,0.83119 -2.89729,0.83119 -0.94993,0 -1.78112,-0.30873 -0.83119,-0.30873 -1.4724,-0.78369 -0.61745,-0.47497 -0.97368,-0.94994 -0.33247,-0.49871 -0.33247,-0.83119 l 0.73619,-0.30872 v 1.73362 q 0,0.61746 -0.40372,1.04493 -0.40372,0.40372 -1.02117,0.40372 -0.61746,0 -1.02118,-0.40372 -0.40372,-0.40372 -0.40372,-1.04493 v -14.91393 q 0,-0.61746 0.40372,-1.02118 0.40372,-0.42747 1.02118,-0.42747 0.61745,0 1.02117,0.42747 0.40372,0.40372 0.40372,1.02118 v 6.03207 l -0.40372,-0.21374 q 0,-0.30873 0.33248,-0.7362 0.33248,-0.45121 0.90244,-0.87868 0.56995,-0.45122 1.30615,-0.7362 0.75995,-0.28498 1.59114,-0.28498 z m -0.35623,2.61231 q -1.04492,0 -1.82862,0.52247 -0.78369,0.52246 -1.23491,1.42489 -0.42747,0.87869 -0.42747,2.01861 0,1.11617 0.42747,2.04235 0.45122,0.90244 1.23491,1.4249 0.7837,0.52246 1.82862,0.52246 1.04493,0 1.80487,-0.52246 0.7837,-0.52246 1.21117,-1.4249 0.45122,-0.92618 0.45122,-2.04235 0,-1.13992 -0.45122,-2.01861 -0.42747,-0.90243 -1.21117,-1.42489 -0.75994,-0.52247 -1.80487,-0.52247 z"
         id="path227"
         inkscape:label="b"
         style="font-weight:bold;font-size:23.7483px;line-height:1;font-family:Quicksand;-inkscape-font-specification:'Quicksand Bold';text-align:center;letter-spacing:-0.986293px;text-anchor:middle;fill:#2d2e2f;fill-opacity:1;stroke-width:0.0445278;stroke-linecap:round;stroke-linejoin:round;paint-order:stroke fill markers" /><path
         style="font-weight:bold;font-size:23.7483px;line-height:1;font-family:Quicksand;-inkscape-font-specification:'Quicksand Bold';text-align:center;letter-spacing:-1.25528px;text-anchor:middle;fill:#2d2e2f;fill-opacity:1;stroke-width:0.0445278;stroke-linecap:round;stroke-linejoin:round;paint-order:stroke fill markers"
         d="m 271.6605,235.91505 q -0.66496,0 -1.06868,-0.54621 l -5.48586,-7.21948 2.1611,-2.20859 5.67584,7.50446 q 0.33248,0.45122 0.33248,0.97368 0,0.66495 -0.49871,1.09242 -0.49872,0.40372 -1.11617,0.40372 z m 0.28497,-16.74255 q 0.56996,0 0.92619,0.47497 0.37997,0.45122 0.37997,0.92618 0,0.49872 -0.42747,0.92619 l -9.95054,9.52306 -0.11874,-3.396 8.02693,-7.90819 q 0.54621,-0.54621 1.16366,-0.54621 z m -10.25926,16.74255 q -0.66495,0 -1.06867,-0.40372 -0.40373,-0.42747 -0.40373,-1.04492 v -13.72652 q 0,-0.61746 0.42747,-1.02118 0.42747,-0.42747 1.09243,-0.42747 0.66495,0 1.04492,0.42747 0.40372,0.40372 0.40372,1.02118 v 13.72652 q 0,0.61745 -0.40372,1.04492 -0.40372,0.40372 -1.09242,0.40372 z"
         id="path228"
         inkscape:label="K" /><path
         style="font-weight:bold;font-size:23.7483px;line-height:1;font-family:Quicksand;-inkscape-font-specification:'Quicksand Bold';text-align:center;letter-spacing:-1.25528px;text-anchor:middle;fill:#2d2e2f;fill-opacity:1;stroke-width:0.0445278;stroke-linecap:round;stroke-linejoin:round;paint-order:stroke fill markers"
         d="m 253.86967,222.97223 q 1.75737,0 2.65981,0.7362 0.92618,0.7362 1.25865,1.97111 0.35623,1.21116 0.35623,2.7073 v 6.07957 q 0,0.61745 -0.40372,1.04492 -0.40372,0.40372 -1.02118,0.40372 -0.61745,0 -1.02118,-0.40372 -0.40372,-0.42747 -0.40372,-1.04492 v -6.07957 q 0,-0.78369 -0.21373,-1.40115 -0.18999,-0.6412 -0.71245,-1.02117 -0.52246,-0.37998 -1.49614,-0.37998 -0.94994,0 -1.61489,0.37998 -0.6412,0.37997 -0.99743,1.02117 -0.33247,0.61746 -0.33247,1.40115 v 6.07957 q 0,0.61745 -0.40372,1.04492 -0.40372,0.40372 -1.02118,0.40372 -0.61746,0 -1.02118,-0.40372 -0.40372,-0.42747 -0.40372,-1.04492 v -9.80805 q 0,-0.61746 0.40372,-1.02118 0.40372,-0.42747 1.02118,-0.42747 0.61746,0 1.02118,0.42747 0.40372,0.40372 0.40372,1.02118 v 1.02118 l -0.35623,-0.0712 q 0.21374,-0.40372 0.61746,-0.85494 0.40372,-0.47496 0.94993,-0.87868 0.54621,-0.40373 1.23491,-0.64121 0.6887,-0.26123 1.49615,-0.26123 z"
         id="path229"
         inkscape:label="n" /><path
         style="font-weight:bold;font-size:23.7483px;line-height:1;font-family:Quicksand;-inkscape-font-specification:'Quicksand Bold';text-align:center;letter-spacing:-1.12975px;text-anchor:middle;fill:#2d2e2f;fill-opacity:1;stroke-width:0.0445278;stroke-linecap:round;stroke-linejoin:round;paint-order:stroke fill markers"
         d="m 243.69526,222.97223 q 0.61746,0 1.02118,0.40372 0.40372,0.40372 0.40372,1.04493 v 10.04553 q 0,0.61745 -0.40372,1.04492 -0.40372,0.40372 -1.02118,0.40372 -0.61745,0 -1.02117,-0.40372 -0.40372,-0.42747 -0.40372,-1.04492 v -1.16367 l 0.52246,0.21374 q 0,0.30872 -0.33248,0.75994 -0.33247,0.42747 -0.90243,0.85494 -0.56996,0.42747 -1.35366,0.7362 -0.75994,0.28498 -1.66238,0.28498 -1.63863,0 -2.96854,-0.83119 -1.3299,-0.85494 -2.11359,-2.32734 -0.75995,-1.49614 -0.75995,-3.41975 0,-1.94736 0.75995,-3.41976 0.78369,-1.49614 2.08985,-2.32733 1.30615,-0.85494 2.89729,-0.85494 1.02118,0 1.87611,0.30873 0.85494,0.30873 1.4724,0.78369 0.6412,0.47497 0.97368,0.97368 0.35622,0.47497 0.35622,0.80744 l -0.85493,0.30873 v -1.73362 q 0,-0.61746 0.40372,-1.02118 0.40372,-0.42747 1.02117,-0.42747 z m -4.79715,10.56799 q 1.04492,0 1.82862,-0.52246 0.78369,-0.52246 1.21116,-1.4249 0.45122,-0.90243 0.45122,-2.0186 0,-1.13992 -0.45122,-2.04236 -0.42747,-0.90243 -1.21116,-1.42489 -0.7837,-0.52247 -1.82862,-0.52247 -1.02118,0 -1.80487,0.52247 -0.7837,0.52246 -1.23492,1.42489 -0.42746,0.90244 -0.42746,2.04236 0,1.11617 0.42746,2.0186 0.45122,0.90244 1.23492,1.4249 0.78369,0.52246 1.80487,0.52246 z"
         id="path230"
         inkscape:label="a" /><path
         id="path2"
         style="font-weight:bold;font-size:23.7483px;line-height:1;font-family:Quicksand;-inkscape-font-specification:'Quicksand Bold';text-align:center;letter-spacing:-1.12975px;text-anchor:middle;display:inline;fill:#2d2e2f;fill-opacity:1;stroke-width:0.0445278;stroke-linecap:round;stroke-linejoin:round;paint-order:stroke fill markers"
         inkscape:label="P"
         d="m 222.17522,219.29087 v 2.73047 h 5.54883 c 0.30081,0 0.59392,0.12755 0.8789,0.38086 0.28498,0.23749 0.52291,0.55342 0.71289,0.94922 0.18998,0.39581 0.28516,0.82407 0.28516,1.2832 0,0.4433 -0.0952,0.87157 -0.28516,1.28321 -0.18998,0.39581 -0.42791,0.71934 -0.71289,0.97265 -0.28498,0.25331 -0.57809,0.38086 -0.8789,0.38086 h -5.54883 v -5.25 h -2.73242 v 12.44532 c 0,0.41162 0.12753,0.75994 0.38085,1.04492 0.25331,0.26915 0.57685,0.40429 0.97266,0.40429 0.41163,0 0.74474,-0.13514 0.99805,-0.40429 0.25332,-0.28498 0.38086,-0.6333 0.38086,-1.04492 v -4.48829 h 5.54883 c 0.82327,0 1.59223,-0.23792 2.30468,-0.71289 0.72828,-0.4908 1.31256,-1.13982 1.75586,-1.94726 0.4433,-0.80744 0.66602,-1.702 0.66602,-2.6836 0,-0.99743 -0.22272,-1.89959 -0.66602,-2.70703 -0.4433,-0.80745 -1.02758,-1.44886 -1.75586,-1.92383 -0.71245,-0.47496 -1.48141,-0.71289 -2.30468,-0.71289 z" /><rect
         style="font-weight:bold;font-size:23.7483px;line-height:1;font-family:Quicksand;-inkscape-font-specification:'Quicksand Bold';text-align:center;letter-spacing:-0.986293px;text-anchor:middle;display:inline;fill:#2d2e2f;fill-opacity:1;stroke:none;stroke-width:0.385582;stroke-linecap:round;stroke-linejoin:round;paint-order:stroke fill markers"
         id="rect233"
         width="2.7352836"
         height="2.7613146"
         x="218.07587"
         y="217.91058"
         ry="0.86352551" /></g><text
       xml:space="preserve"
       style="font-style:normal;font-variant:normal;font-weight:bold;font-stretch:normal;font-size:9.31295px;line-height:1;font-family:Quicksand;-inkscape-font-specification:'Quicksand Bold';text-align:center;letter-spacing:-0.386777px;text-anchor:middle;display:none;fill:#007f83;fill-opacity:1;stroke-width:0.0174617;stroke-linecap:round;stroke-linejoin:round;paint-order:stroke fill markers"
       x="313.20782"
       y="215.93431"
       id="text233"
       inkscape:label="beta font Quicksand Medium"><tspan
         sodipodi:role="line"
         id="tspan233"
         x="0"
         y="0"
         style="font-style:normal;font-variant:normal;font-weight:500;font-stretch:normal;font-family:Quicksand;-inkscape-font-specification:'Quicksand Medium';letter-spacing:-0.386777px;fill:#007f83;fill-opacity:1;stroke-width:0.0174617">beta</tspan></text><g
       id="g236"
       inkscape:label="beta paths"
       transform="translate(-0.0629747,-3.3063626)"
       style="display:inline"><path
         style="font-weight:500;font-size:9.31295px;line-height:1;font-family:Quicksand;-inkscape-font-specification:'Quicksand Medium';text-align:center;letter-spacing:-0.386777px;text-anchor:middle;fill:#007f83;stroke-width:0.0174617;stroke-linecap:round;stroke-linejoin:round;paint-order:stroke fill markers"
         d="m 322.72133,214.3793 q 0.15832,0 0.26077,0.11176 0.11175,0.10244 0.11175,0.26076 v 4.10701 q 0,0.15832 -0.11175,0.27008 -0.10245,0.11175 -0.26077,0.11175 -0.16763,0 -0.27007,-0.11175 -0.10244,-0.11176 -0.10244,-0.27008 v -0.88473 l 0.17694,-0.0186 q 0,0.20489 -0.13969,0.44703 -0.1397,0.24213 -0.38183,0.45633 -0.24214,0.20489 -0.57741,0.34458 -0.32595,0.13038 -0.70778,0.13038 -0.63328,0 -1.13618,-0.32595 -0.5029,-0.33527 -0.80091,-0.90336 -0.2887,-0.56809 -0.2887,-1.2945 0,-0.73572 0.2887,-1.2945 0.29801,-0.56809 0.80091,-0.88473 0.5029,-0.32595 1.11755,-0.32595 0.40046,0 0.74504,0.13038 0.34458,0.13038 0.59603,0.35389 0.26076,0.22351 0.40046,0.49359 0.149,0.27007 0.149,0.54015 l -0.24213,-0.0559 v -1.01511 q 0,-0.15832 0.10244,-0.26076 0.10244,-0.11176 0.27007,-0.11176 z m -1.91846,4.26533 q 0.46564,0 0.81954,-0.24213 0.3632,-0.24214 0.55877,-0.65191 0.20489,-0.41908 0.20489,-0.94061 0,-0.51221 -0.20489,-0.92198 -0.19557,-0.41908 -0.55877,-0.65191 -0.3539,-0.24213 -0.81954,-0.24213 -0.45634,0 -0.81954,0.23282 -0.35389,0.23282 -0.55878,0.64259 -0.20488,0.40977 -0.20488,0.94061 0,0.52153 0.19557,0.94061 0.20488,0.40977 0.55877,0.65191 0.36321,0.24213 0.82886,0.24213 z"
         id="path233" /><path
         style="font-weight:500;font-size:9.31295px;line-height:1;font-family:Quicksand;-inkscape-font-specification:'Quicksand Medium';text-align:center;letter-spacing:-0.386777px;text-anchor:middle;fill:#007f83;stroke-width:0.0174617;stroke-linecap:round;stroke-linejoin:round;paint-order:stroke fill markers"
         d="m 315.57395,214.45381 h 2.18854 q 0.14901,0 0.24214,0.10244 0.10244,0.10244 0.10244,0.24213 0,0.14901 -0.10244,0.25145 -0.0931,0.0931 -0.24214,0.0931 h -2.18854 q -0.1397,0 -0.24214,-0.10244 -0.10244,-0.10244 -0.10244,-0.25145 0,-0.13969 0.10244,-0.23282 0.10244,-0.10244 0.24214,-0.10244 z m 0.97786,-1.26657 q 0.15832,0 0.26076,0.11176 0.10244,0.10244 0.10244,0.26076 v 4.49816 q 0,0.22351 0.0652,0.33526 0.0652,0.11176 0.16763,0.15832 0.11176,0.0373 0.2142,0.0373 0.0931,0 0.15832,-0.0279 0.0745,-0.0373 0.16764,-0.0373 0.0931,0 0.16763,0.0931 0.0838,0.0838 0.0838,0.22351 0,0.16764 -0.19557,0.28871 -0.19557,0.11175 -0.43771,0.11175 -0.13038,0 -0.32595,-0.0186 -0.18626,-0.0186 -0.37252,-0.12107 -0.18626,-0.10245 -0.31664,-0.33527 -0.12107,-0.24214 -0.12107,-0.67053 v -4.53541 q 0,-0.15832 0.11176,-0.26076 0.11176,-0.11176 0.27008,-0.11176 z"
         id="path234"
         inkscape:label="t" /><path
         style="font-weight:500;font-size:9.31295px;line-height:1;font-family:Quicksand;-inkscape-font-specification:'Quicksand Medium';text-align:center;letter-spacing:-0.386777px;text-anchor:middle;fill:#007f83;stroke-width:0.0174617;stroke-linecap:round;stroke-linejoin:round;paint-order:stroke fill markers"
         d="m 313.03646,219.33379 q -0.74504,0 -1.30382,-0.31664 -0.55877,-0.31664 -0.87541,-0.8661 -0.30733,-0.55878 -0.30733,-1.28519 0,-0.81023 0.31664,-1.37832 0.32595,-0.5774 0.83816,-0.87541 0.52153,-0.30733 1.09893,-0.30733 0.4284,0 0.82886,0.15832 0.40045,0.15832 0.70778,0.46565 0.30733,0.29801 0.49359,0.72641 0.18625,0.41908 0.19557,0.9406 0,0.14901 -0.11176,0.25145 -0.11175,0.10245 -0.26076,0.10245 h -3.67862 l -0.16763,-0.6426 h 3.58549 l -0.14901,0.13038 v -0.20488 q -0.0373,-0.38183 -0.26076,-0.65191 -0.2142,-0.27939 -0.53084,-0.42839 -0.30733,-0.14901 -0.65191,-0.14901 -0.27939,0 -0.55877,0.10244 -0.27008,0.0931 -0.49359,0.31664 -0.2142,0.2142 -0.35389,0.55878 -0.13038,0.34458 -0.13038,0.82885 0,0.54015 0.21419,0.94992 0.22351,0.40977 0.61466,0.65191 0.39114,0.23282 0.91267,0.23282 0.32595,0 0.56809,-0.0838 0.24213,-0.0838 0.41908,-0.20489 0.17695,-0.13038 0.29801,-0.26076 0.12107,-0.0838 0.23283,-0.0838 0.13969,0 0.22351,0.0931 0.0931,0.0931 0.0931,0.22351 0,0.15832 -0.14901,0.27939 -0.26076,0.2887 -0.70778,0.51221 -0.44702,0.2142 -0.94992,0.2142 z"
         id="path235"
         inkscape:label="e" /><path
         style="font-weight:500;font-size:9.31295px;line-height:1;font-family:Quicksand;-inkscape-font-specification:'Quicksand Medium';text-align:center;letter-spacing:-0.386777px;text-anchor:middle;fill:#007f83;stroke-width:0.0174617;stroke-linecap:round;stroke-linejoin:round;paint-order:stroke fill markers"
         d="m 307.85409,214.3048 q 0.63328,0 1.13618,0.32595 0.5029,0.31664 0.7916,0.87542 0.29802,0.55878 0.29802,1.2945 0,0.73572 -0.29802,1.30381 -0.2887,0.56809 -0.7916,0.90336 -0.49358,0.32595 -1.11755,0.32595 -0.34458,0 -0.65191,-0.10244 -0.29801,-0.11176 -0.54946,-0.2887 -0.24214,-0.18626 -0.40977,-0.40046 -0.16763,-0.22351 -0.24214,-0.43771 l 0.20489,-0.13038 v 0.9313 q 0,0.15832 -0.10244,0.27007 -0.10245,0.11176 -0.27008,0.11176 -0.15832,0 -0.27008,-0.10245 -0.10244,-0.11175 -0.10244,-0.27938 v -6.17449 q 0,-0.15832 0.10244,-0.27008 0.11176,-0.11175 0.27008,-0.11175 0.16763,0 0.27008,0.11175 0.10244,0.11176 0.10244,0.27008 v 2.86839 l -0.1397,-0.0745 q 0.0652,-0.23282 0.22351,-0.44702 0.16764,-0.22351 0.40046,-0.39114 0.24214,-0.17695 0.53084,-0.27939 0.29801,-0.10244 0.61465,-0.10244 z m -0.0838,0.68916 q -0.46565,0 -0.82886,0.23282 -0.35389,0.23282 -0.55877,0.64259 -0.19557,0.40977 -0.19557,0.9313 0,0.52152 0.19557,0.94061 0.20488,0.41908 0.55877,0.66122 0.36321,0.24213 0.82886,0.24213 0.46564,0 0.81954,-0.24213 0.35389,-0.24214 0.55877,-0.66122 0.20489,-0.41909 0.20489,-0.94061 0,-0.52153 -0.20489,-0.9313 -0.20488,-0.40977 -0.55877,-0.64259 -0.3539,-0.23282 -0.81954,-0.23282 z"
         id="path236"
         inkscape:label="b" /></g><g
       id="g52"
       transform="matrix(0.2524173,0,0,0.2524173,132.53405,143.78549)"
       inkscape:label="Logo"
       inkscape:export-filename="pkb.png"
       inkscape:export-xdpi="96"
       inkscape:export-ydpi="96"><g
         id="g25"><path
           class="cls-3"
           d="m 240.5,352.6 c 37.2,0 67.4,-30.2 67.4,-67.4 v 0 c 0,-37.2 -30.2,-67.4 -67.4,-67.4 h -93.2 c -2.6,0 -4.6,2.1 -4.6,4.6 v 3.3 0 2.6 c 0,2.6 -2.1,4.6 -4.6,4.6 h -2.6 c 0,0 -3.3,0 -3.3,0 0,0 -0.2,0 -0.3,0 v 0 c -2.6,0 -4.6,-2.2 -4.6,-4.7 v 0 c 0,0 0,0 0,0 v -5.9 c 0,-2.6 -2.1,-4.6 -4.6,-4.6 h -5.3 v 0 c -2.6,0 -4.6,-2 -4.6,-4.7 v -5.7 c 0,-2.6 -2.1,-4.6 -4.6,-4.6 h -5.9 c -2.6,0 -4.6,2.1 -4.6,4.6 v 5.9 c 0,2.6 2.1,4.6 4.6,4.6 h 5.7 c 2.7,0 4.1,2.2 4.1,4.9 v 0 c 0,0 0,5.5 0,5.5 0,0 0,0.2 0,0.3 v 0 c 0,2.5 -2.1,4.4 -4.6,4.4 v 0 c 0,0 -5.2,0 -5.2,0 -2.6,0 -4.6,2.1 -4.6,4.6 v 5.9 c 0,2.6 2.1,4.6 4.6,4.6 h 5.9 c 2.6,0 4.6,-2.1 4.6,-4.6 v -5.6 c 0,-2.5 1.4,-5 3.9,-5 v 0 c 0,0 0,0 0,0 h 5.9 c 0,0 0.2,0 0.3,0 v 0 c 2.6,0 4.6,2.1 4.6,4.7 v 0 c 0,0 0,0 0,0 v 3.4 0 2.5 c 0,2.6 -2.1,4.6 -4.6,4.6 h -2.4 c 0,0 -3.2,0 -3.2,0 -2.6,0 -4.6,2.1 -4.6,4.6 v 3.3 0 2.6 c 0,2.6 -2.1,4.6 -4.6,4.6 h -2.6 c 0,0 -3,0 -3,0 -2.6,0 -4.6,2.1 -4.6,4.6 v 5.9 c 0,0 0,0 0,0 v 49 c 0,0 0,69.7 0,69.7 0,11.7 11.1,21.2 24.8,21.2 h 53.2 c 13.7,0 24.8,-9.5 24.8,-21.2 v -40.1 h 40.1 z"
           id="path3"
           style="fill:#038183" /><g
           class="cls-8"
           clip-path="url(#clippath)"
           id="g24"><g
             id="g23"><rect
               class="cls-3"
               x="59.099998"
               y="181"
               width="293.89999"
               height="235.10001"
               id="rect3"
               style="fill:#038183" /><g
               id="g16"><path
                 class="cls-7"
                 d="m 247.9,231.9 -10.5,0.8 c -9.4,0 -18.9,8.3 -24.2,13 l -13.8,13.7 c -2.1,2.2 -3.7,4.5 -4.9,7.2 -5,11.8 -4.1,32.3 0.7,37.8 4.8,5.5 13.2,9.8 13.2,9.8 11.3,5.6 12.4,10.2 21.7,13.5 9.3,3.3 18,-8.9 18,-8.9 4.5,-5.8 11.3,-11.4 16,-20.9 4.7,-9.5 7.1,-29.7 4.6,-39.8 -2.5,-10.1 -6,-14.4 -6,-14.4 -3.4,-6.3 -7.7,-11.8 -14.9,-11.8 z"
                 id="path4"
                 style="fill:#1e9095" /><path
                 class="cls-7"
                 d="m 70.4,337.9 v 42 c 0,3 1.6,5.9 4.3,7.4 l 25,14.4 c 9.2,5.3 19.9,8.3 34.8,2.6 0.9,-0.3 1.8,-0.8 2.7,-1.1 l 14.5,-7.5 c 8.7,-5 13,-13.3 9.8,-24.8 l -1.3,-10.8 c -2.7,-25 -8.9,-32.2 -23.4,-40.5 l -9.6,-5.5 c -7.3,-4.2 -16.4,-4.2 -23.7,0 l -28.7,16.6 c -2.6,1.5 -4.3,4.3 -4.3,7.4 z"
                 id="path5"
                 style="fill:#1e9095" /><path
                 class="cls-7"
                 d="m 121.4,279.1 v 11.6 c 0,8.9 7.7,16.7 15.4,21.1 l 10.3,8 c 5.5,3.2 13.1,3.7 17.9,0 l 12.5,-10 c 6.6,-3.8 10.2,-9.9 10.2,-17.6 v -12.4 c 0,-7.3 -3.9,-14.1 -10.3,-17.8 l -12.8,-7.4 c -5.4,-3.1 -12,-3.1 -17.4,0 l -13.9,8 c -5.7,3.3 -12,7.9 -12.1,16.4 z"
                 id="path6"
                 style="fill:#1e9095" /><path
                 class="cls-7"
                 d="m 137.1,416.8 v 11.6 c 0,8.9 7.7,16.7 15.4,21.1 l 10.3,8 c 5.5,3.2 13.1,3.7 17.9,0 l 12.5,-10 c 6.6,-3.8 10.2,-9.9 10.2,-17.6 v -12.4 c 0,-7.3 -3.9,-14.1 -10.3,-17.8 l -12.8,-7.4 c -5.4,-3.1 -12,-3.1 -17.4,0 l -13.9,8 c -5.7,3.3 -12,7.9 -12.1,16.4 z"
                 id="path7"
                 style="fill:#1e9095" /><path
                 class="cls-7"
                 d="m 229.9,363.5 0.3,-19.5 c 0,-6.3 -5,-13.4 -12,-17.3 L 195,310.8 c -4.3,-2.5 -9.3,-1.5 -13.6,1 l -8.2,6.2 c -8.6,5 -12.5,16 -11.1,22.7 l 5,27.6 c 4.5,15.9 8.4,16.8 17.6,22 l 10,4.5 c 2.7,1.6 10.3,3.1 15.1,-0.3 l 10.9,-6.7 c 5.9,-4.7 9.2,-12.6 9.2,-24.3 z"
                 id="path8"
                 style="fill:#1e9095" /><path
                 class="cls-7"
                 d="m 153.3,222.6 0.3,-19.5 c 0,-6.3 -5,-13.4 -12,-17.3 l -23.2,-15.9 c -4.3,-2.5 -9.3,-1.5 -13.6,1 l -8.2,6.2 c -8.6,5 -12.5,16 -11.1,22.7 l 5,27.6 c 4.5,15.9 8.4,16.8 17.6,22 l 10,4.5 c 2.7,1.6 10.3,3.1 15.1,-0.3 l 10.9,-6.7 c 5.9,-4.7 9.2,-12.6 9.2,-24.3 z"
                 id="path9"
                 style="fill:#1e9095" /><path
                 class="cls-7"
                 d="m 265.9,314.9 c -11.7,-0.6 -18.4,10.2 -25.1,20.6 -6.7,10.4 -6,17.5 -8,30.3 -2,12.8 -3.5,14.7 -0.7,21.6 2.8,6.9 16.6,11.5 28.1,8.2 11.5,-3.3 20.5,-12.6 23.6,-27.5 3.2,-14.9 0.9,-35.5 -1.9,-42.2 -2.8,-6.7 -5.4,-10.4 -16,-11 z"
                 id="path10"
                 style="fill:#1e9095" /><path
                 class="cls-7"
                 d="m 321.9,303.2 c -8.9,-1.5 -13.6,4.1 -19.2,8 -5.6,3.9 -11,6.9 -14,9.9 -3,3 -1.5,14 -1.9,29 -0.4,15.1 -2.2,22.3 11.3,28.5 13.6,6.1 25.3,-6.1 27.5,-10 2.2,-3.9 5.6,-10.8 10.2,-15.3 4.7,-4.5 7.1,-9.9 8.4,-22 1.3,-12.1 -11.3,-26.2 -22.5,-28.1 z"
                 id="path11"
                 style="fill:#1e9095" /><path
                 class="cls-7"
                 d="m 173.1,181.2 c -5.8,1.5 -11.7,7.7 -14.4,14.9 -2.7,7.3 -1.1,14.8 -1.5,25.3 -0.4,10.5 -0.1,23 10.9,30.6 11,7.5 14,10.7 19.4,11 5.4,0.3 9.5,-5.9 13.1,-10.2 3.6,-4.3 7.7,-8.1 12.1,-12.7 4.5,-4.6 7.3,-9.9 7.5,-17.7 0.2,-7.8 -1.5,-22.7 -6,-28.2 -4.5,-5.4 -14.2,-7.8 -20.4,-9.1 -6.1,-1.3 -12.3,-6.1 -20.8,-3.9 z"
                 id="path12"
                 style="fill:#1e9095" /><rect
                 class="cls-1"
                 x="73.900002"
                 y="231.8"
                 width="6.9000001"
                 height="6.9000001"
                 rx="1.8"
                 ry="1.8"
                 id="rect12"
                 style="fill:#92ca5f" /><rect
                 class="cls-1"
                 x="81.199997"
                 y="214.7"
                 width="10.9"
                 height="10.9"
                 rx="3.3"
                 ry="3.3"
                 id="rect13"
                 style="fill:#92ca5f" /><path
                 class="cls-7"
                 d="m 94.6,242.3 c 9.2,0.4 14.4,7.5 17.5,12.6 3.1,5 4.7,11.8 4.8,21.1 0,9.3 3.3,21.3 -0.9,26.1 -4.2,4.8 -20.3,11.5 -25.2,11 -4.9,-0.6 -20.5,-35.6 -20.5,-35.6 z"
                 id="path13"
                 style="fill:#1e9095" /><path
                 class="cls-7"
                 d="m 221.9,185.9 c -1.5,4.5 0.7,14.8 1.4,21.3 0.7,6.6 0.3,14.5 3.9,18.3 3.6,3.8 13.4,4.3 23.6,2 10.2,-2.4 28,-13.7 31.7,-20.4 3.6,-6.7 -1.8,-21.6 -1.8,-21.6 l -58.7,0.4 z"
                 id="path14"
                 style="fill:#1e9095" /><path
                 class="cls-7"
                 d="m 301.3,263.8 c -8.8,0 -17.9,-1.3 -22.9,2.9 -5,4.2 -5.4,13.8 -6.4,18.6 -1,4.8 -3.2,14.5 0.1,20.4 3.3,5.9 9.6,9.5 15.9,9.3 6.3,-0.2 23.3,-13.3 23.3,-13.3 l 3.9,-39.3 c 0,0 -6.6,1.4 -14,1.4 z"
                 id="path15"
                 style="fill:#1e9095" /><path
                 class="cls-7"
                 d="m 285.4,211.5 c 0,0 -7.3,5.4 -13.4,9.3 -6.1,3.9 -7.8,5.2 -8.2,9.2 -0.4,4 4.6,19 9.2,24.1 4.6,5.2 20,6.7 34.2,5.3 14.2,-1.4 19.7,-20.4 19.7,-20.4 l -41.4,-27.6 z"
                 id="path16"
                 style="fill:#1e9095" /></g><circle
               class="cls-3"
               cx="127.2"
               cy="355.20001"
               r="8.3999996"
               id="circle16"
               style="fill:#038183" /><circle
               class="cls-3"
               cx="198.60001"
               cy="359.29999"
               r="8.3999996"
               id="circle17"
               style="fill:#038183" /><circle
               class="cls-3"
               cx="245.5"
               cy="249.60001"
               r="8.3999996"
               id="circle18"
               style="fill:#038183" /><circle
               class="cls-3"
               cx="178.2"
               cy="237.7"
               r="8.3999996"
               id="circle19"
               style="fill:#038183" /><circle
               class="cls-3"
               cx="241.8"
               cy="211.3"
               r="7.1999998"
               id="circle20"
               style="fill:#038183" /><circle
               class="cls-3"
               cx="262.89999"
               cy="347.10001"
               r="7.1999998"
               id="circle21"
               style="fill:#038183" /><circle
               class="cls-3"
               cx="283.79999"
               cy="243.3"
               r="7.1999998"
               id="circle22"
               style="fill:#038183" /><ellipse
               class="cls-3"
               cx="291.29999"
               cy="286.39999"
               rx="6.6999998"
               ry="6.3000002"
               id="ellipse22"
               style="fill:#038183" /><ellipse
               class="cls-7"
               cx="308.39999"
               cy="331.39999"
               rx="7"
               ry="6.5999999"
               id="ellipse23"
               style="fill:#1e9095" /></g></g></g><path
         class="cls-7"
         d="m 116.2,198.9 h 2.4 c 0.7,0 1.3,0.6 1.3,1.3 v 2.4 c 0,0.7 -0.6,1.3 -1.3,1.3 h -2.4 c -0.7,0 -1.3,-0.6 -1.3,-1.3 v -2.4 c 0,-0.7 0.6,-1.3 1.3,-1.3 z"
         id="path25"
         style="fill:#1e9095" /><rect
         class="cls-7"
         x="72.099998"
         y="210.89999"
         width="6.6999998"
         height="6.6999998"
         rx="1.8"
         ry="1.8"
         id="rect25"
         style="fill:#1e9095" /><rect
         class="cls-7"
         x="77.599998"
         y="240.60001"
         width="6.6999998"
         height="6.6999998"
         rx="1.8"
         ry="1.8"
         id="rect26"
         style="fill:#1e9095" /><path
         class="cls-2"
         d="m 87.4,193.8 h 5.4 c 1.7,0 3,1.3 3,3 v 5.4 c 0,1.7 -1.3,3 -3,3 h -5.4 c -1.7,0 -3,-1.3 -3,-3 v -5.4 c 0,-1.7 1.3,-3 3,-3 z"
         id="path26"
         style="fill:#c7dc5f" /><rect
         class="cls-2"
         x="84.699997"
         y="223.8"
         width="10.7"
         height="10.7"
         rx="3.3"
         ry="3.3"
         id="rect27"
         style="fill:#c7dc5f" /><rect
         class="cls-2"
         x="128.8"
         y="208.89999"
         width="10.7"
         height="10.7"
         rx="3.3"
         ry="3.3"
         id="rect28"
         style="fill:#c7dc5f" /><circle
         class="cls-2"
         cx="124.3"
         cy="333.20001"
         r="3.0999999"
         id="circle28"
         style="fill:#c7dc5f" /><g
         id="g50"><path
           class="cls-5"
           d="m 90.5,299.5 h 31.9 c 0,0.1 12.9,-12 12.9,-12 0.7,-0.7 1.8,-0.7 2.5,0 0.7,0.7 0.7,1.8 0,2.5 l -9.2,9.8 27.2,0.2 12.9,-12.1 c 0.7,-0.7 1.8,-0.7 2.5,0 0.7,0.7 0.7,1.8 0,2.5 l -9.1,9.7 27.1,0.2 12.9,-12.1 c 0.7,-0.7 1.8,-0.7 2.5,0 0.7,0.7 0.7,1.8 0,2.5 l -9.1,9.7 27.1,0.2 13,-12.1 c 0.7,-0.7 1.8,-0.7 2.5,0 0.7,0.7 0.7,1.8 0,2.5 l -9.1,9.7 25.2,0.2 c 1.2,0 2.4,-0.4 3.1,-1.1 l 10.5,-9.7 c 0.7,-0.7 1.8,-0.7 2.5,0 0.7,0.7 0.7,1.8 0,2.5 l -11,11.8 c -0.7,0.7 -1.9,1.2 -3.2,1.2 v 0 c 0,0 -10.6,0.1 -10.6,0.1 l 9.6,10.2 c 0.7,0.7 0.7,1.8 0,2.5 -0.7,0.7 -1.8,0.7 -2.5,0 l -13,-12.2 c -0.1,-0.1 -0.2,-0.3 -0.3,-0.4 l -27.2,0.3 9.5,10.2 c 0.7,0.7 0.7,1.8 0,2.5 -0.7,0.7 -1.8,0.7 -2.5,0 l -13.3,-12.5 c 0,0 0,0 0,0 l -27.1,0.3 9.4,10.1 c 0.7,0.7 0.7,1.8 0,2.5 -0.7,0.7 -1.8,0.7 -2.5,0 l -13.2,-12.4 -27.1,0.3 9.4,10 c 0.7,0.7 0.7,1.8 0,2.5 -0.7,0.7 -1.8,0.7 -2.5,0 L 139,307.2 90.4,307.5 v -7.6 z"
           id="path28"
           style="fill:#ffffff" /><circle
           class="cls-2"
           cx="116.1"
           cy="287.89999"
           r="7.6999998"
           id="circle29"
           style="fill:#c7dc5f" /><circle
           class="cls-2"
           cx="112"
           cy="317.70001"
           r="5"
           id="circle30"
           style="fill:#c7dc5f" /><circle
           class="cls-2"
           cx="149.39999"
           cy="288.60001"
           r="7.3000002"
           id="circle31"
           style="fill:#c7dc5f" /><circle
           class="cls-2"
           cx="182.7"
           cy="289.29999"
           r="6.9000001"
           id="circle32"
           style="fill:#c7dc5f" /><circle
           class="cls-2"
           cx="216.10001"
           cy="290.10001"
           r="6.5"
           id="circle33"
           style="fill:#c7dc5f" /><circle
           class="cls-2"
           cx="249.39999"
           cy="290.79999"
           r="6.0999999"
           id="circle34"
           style="fill:#c7dc5f" /><circle
           class="cls-2"
           cx="132.8"
           cy="318.70001"
           r="7.3000002"
           id="circle35"
           style="fill:#c7dc5f" /><circle
           class="cls-2"
           cx="166.10001"
           cy="318.10001"
           r="6.9000001"
           id="circle36"
           style="fill:#c7dc5f" /><circle
           class="cls-2"
           cx="199.39999"
           cy="317.39999"
           r="6.5"
           id="circle37"
           style="fill:#c7dc5f" /><circle
           class="cls-2"
           cx="232.7"
           cy="316.70001"
           r="6.0999999"
           id="circle38"
           style="fill:#c7dc5f" /><circle
           class="cls-2"
           cx="132.8"
           cy="279.60001"
           r="4.8000002"
           id="circle39"
           style="fill:#c7dc5f" /><circle
           class="cls-2"
           cx="166.10001"
           cy="280.70001"
           r="4.5999999"
           id="circle40"
           style="fill:#c7dc5f" /><circle
           class="cls-2"
           cx="199.39999"
           cy="281.70001"
           r="4.3000002"
           id="circle41"
           style="fill:#c7dc5f" /><circle
           class="cls-2"
           cx="232.7"
           cy="282.70001"
           r="4.0999999"
           id="circle42"
           style="fill:#c7dc5f" /><circle
           class="cls-2"
           cx="260.29999"
           cy="281.5"
           r="3.5"
           id="circle43"
           style="fill:#c7dc5f" /><circle
           class="cls-2"
           cx="273.79999"
           cy="282.29999"
           r="4.8000002"
           id="circle44"
           style="fill:#c7dc5f" /><circle
           class="cls-2"
           cx="261.60001"
           cy="312.60001"
           r="5.6999998"
           id="circle45"
           style="fill:#c7dc5f" /><circle
           class="cls-2"
           cx="149.39999"
           cy="328.10001"
           r="4.8000002"
           id="circle46"
           style="fill:#c7dc5f" /><circle
           class="cls-2"
           cx="182.7"
           cy="327.39999"
           r="4.5999999"
           id="circle47"
           style="fill:#c7dc5f" /><circle
           class="cls-2"
           cx="216.10001"
           cy="326.60001"
           r="4.3000002"
           id="circle48"
           style="fill:#c7dc5f" /><circle
           class="cls-2"
           cx="249.89999"
           cy="324.89999"
           r="3.4000001"
           id="circle49"
           style="fill:#c7dc5f" /><circle
           class="cls-2"
           cx="272"
           cy="300.39999"
           r="4.0999999"
           id="circle50"
           style="fill:#c7dc5f" /></g><rect
         class="cls-2"
         x="148.39999"
         y="262.5"
         width="8.1000004"
         height="8.1000004"
         rx="2.0999999"
         ry="2.0999999"
         id="rect50"
         style="fill:#c7dc5f" /><rect
         class="cls-2"
         x="113.8"
         y="263.5"
         width="5.5999999"
         height="5.5999999"
         rx="1.5"
         ry="1.5"
         id="rect51"
         style="fill:#c7dc5f" /><rect
         class="cls-2"
         x="127.5"
         y="250.39999"
         width="10.8"
         height="10.8"
         rx="3.3"
         ry="3.3"
         id="rect52"
         style="fill:#c7dc5f" /></g></g></svg>
